<svg xmlns="http://www.w3.org/2000/svg" width="145.679" height="65.479"><path fill="none" fill-rule="evenodd" stroke="#000" stroke-linecap="round" stroke-width=".25mm" d="M64.16 2.784h-.696a1.746 1.746 0 0 1-.521-.075 1.44 1.44 0 0 1-.522-.292 1.203 1.203 0 0 1-.413-.818 1.692 1.692 0 0 1-.008-.17 1.843 1.843 0 0 1 .045-.424q.063-.268.216-.452a.991.991 0 0 1 .379-.278 3.375 3.375 0 0 1 .912-.242A4.272 4.272 0 0 1 64.087 0a9.909 9.909 0 0 1 4.907 1.246 11.362 11.362 0 0 1 3.559 3.136 13.238 13.238 0 0 1 .25.343 16.187 16.187 0 0 1 1.732 3.192 20.387 20.387 0 0 1 .721 2.081 22.388 22.388 0 0 1 .793 4.422 26.886 26.886 0 0 1 .086 2.17q0 5.786-1.996 11.883a51.577 51.577 0 0 1-3.439 8.035 62.965 62.965 0 0 1-2.457 4.233 75.237 75.237 0 0 1-5.604 7.692 93.19 93.19 0 0 1-4.064 4.595 108.398 108.398 0 0 1-8.319 7.901 130.414 130.414 0 0 1-4.956 4.037 3.526 3.526 0 0 1-.152.115l-.151.104a7.508 7.508 0 0 1-.173.111 1.193 1.193 0 0 1-.455.165 1.57 1.57 0 0 1-.241.018 1.67 1.67 0 0 1-.399-.045 1.054 1.054 0 0 1-.626-.413q-.33-.458-.33-1.08 0-.256.055-1.062a250.555 250.555 0 0 0 .044-.656q.039-.589.085-1.322a147.454 147.454 0 0 1 .082-1.231 194.811 194.811 0 0 1 .101-1.35 105.337 105.337 0 0 0 .183-2.857q.073-1.446.128-2.801a73.824 73.824 0 0 0 .037-1.13q.014-.517.017-.983a43.493 43.493 0 0 0 .001-.304 100.139 100.139 0 0 0 .001-.458q0-4.363-.383-8.36a70.569 70.569 0 0 0-.827-5.996 46.114 46.114 0 0 0-1.55-6.155 34.144 34.144 0 0 0-2.405-5.618 22.942 22.942 0 0 0-3.541-4.914 19.658 19.658 0 0 0-3.435-2.868 16.825 16.825 0 0 0-6.45-2.486 22.648 22.648 0 0 0-3.859-.316 28.089 28.089 0 0 0-3.923.261q-2.092.295-3.89.925a17.496 17.496 0 0 0-.115.041 20.258 20.258 0 0 0-3.145 1.424 15.57 15.57 0 0 0-2.587 1.817 14.252 14.252 0 0 0-2.539 2.872 12.641 12.641 0 0 0-.94 1.687q-1.171 2.545-1.171 5.182a11.968 11.968 0 0 0 .209 2.286 9.464 9.464 0 0 0 .578 1.907A9.436 9.436 0 0 0 5.2 34.119a8.882 8.882 0 0 0 .495.507 9.232 9.232 0 0 0 3.241 1.977 11.47 11.47 0 0 0 3.327.66 13.342 13.342 0 0 0 .701.018 14.459 14.459 0 0 0 1.852-.114 11.294 11.294 0 0 0 1.48-.289 20.217 20.217 0 0 0 1.189-.356q.761-.255 1.375-.541a18.002 18.002 0 0 0 .619-.302q.627-.322 1.041-.609a5.586 5.586 0 0 0 .006-.005q.537-.374.655-.474a.39.39 0 0 0 .023-.02.887.887 0 0 1 .277-.191.841.841 0 0 1 .144-.047 2.143 2.143 0 0 1 .315-.05 1.834 1.834 0 0 1 .143-.005 1.41 1.41 0 0 1 .952.348 1.143 1.143 0 0 1 .398.806 1.596 1.596 0 0 1 .005.128 1.621 1.621 0 0 1-.057.439 1.162 1.162 0 0 1-.42.623q-.073.073-.805.604a7.871 7.871 0 0 1-.571.374q-.304.182-.67.372a19.595 19.595 0 0 1-.792.389 16.337 16.337 0 0 1-1.239.511q-.862.318-1.892.606a13.649 13.649 0 0 1-2.316.428 17.472 17.472 0 0 1-1.749.085 14.56 14.56 0 0 1-3.914-.515 13.273 13.273 0 0 1-1.213-.401 12.002 12.002 0 0 1-3.654-2.185 11.432 11.432 0 0 1-.447-.415q-1.721-1.684-2.71-4.01a12.474 12.474 0 0 1-.927-3.766A15.101 15.101 0 0 1 0 27.32a15.015 15.015 0 0 1 1.272-5.999 17.166 17.166 0 0 1 .083-.19 15.809 15.809 0 0 1 3.524-4.968 18.341 18.341 0 0 1 .486-.452A18.551 18.551 0 0 1 9.17 13.1a23.696 23.696 0 0 1 2.75-1.216q3.893-1.444 9.009-1.447a36.696 36.696 0 0 1 .018 0 25.603 25.603 0 0 1 5.628.591 19.38 19.38 0 0 1 5.78 2.284 22.21 22.21 0 0 1 6.865 6.533 26.713 26.713 0 0 1 1.008 1.579 34.674 34.674 0 0 1 2.833 6.168q1.05 2.988 1.745 6.448a73.936 73.936 0 0 1 1.189 8.687 96.952 96.952 0 0 1 .294 7.701 126.522 126.522 0 0 1-.084 4.548 139.177 139.177 0 0 1-.026.67 144.403 144.403 0 0 1-.329 5.475 94.026 94.026 0 0 0 10.183-9.192 85.823 85.823 0 0 0 1.297-1.391 83.407 83.407 0 0 0 6.043-7.41 70.18 70.18 0 0 0 2.637-3.925q3.57-5.731 5.474-11.425a38.095 38.095 0 0 0 1.514-6.07 30.347 30.347 0 0 0 .391-4.789 24.952 24.952 0 0 0-.251-3.596 21.058 21.058 0 0 0-.39-2.007 17.063 17.063 0 0 0-.783-2.421 13 13 0 0 0-1.067-2.065 10.214 10.214 0 0 0-1.609-1.955 8.779 8.779 0 0 0-1.302-1.011 6.987 6.987 0 0 0-3.794-1.08 8.325 8.325 0 0 0-.033 0Zm80.896 51.031a124.592 124.592 0 0 0 .126-.233q.26-.485.35-.664a3.552 3.552 0 0 0 .027-.069q.078-.208.105-.365a.899.899 0 0 0 .015-.152 1.43 1.43 0 0 0-.088-.499 1.567 1.567 0 0 0-.297-.49 1.241 1.241 0 0 0-.516-.358 1.43 1.43 0 0 0-.491-.081q-.403 0-.732.201a1.329 1.329 0 0 0-.192.142 1.403 1.403 0 0 0-.321.426 15.265 15.265 0 0 1-.031.064q-.234.48-.528.999a25.085 25.085 0 0 1-.649 1.079q-.733 1.154-1.594 2.161a11.949 11.949 0 0 1-.655.709 9.67 9.67 0 0 1-1.139.975 4.883 4.883 0 0 1-.178.124q-.84.554-1.635.554a5.424 5.424 0 0 1-.862-.065 3.953 3.953 0 0 1-.932-.265 6.602 6.602 0 0 1-.631-.309 5.069 5.069 0 0 1-.687-.46q-.55-.439-.879-.915-.33-.476-.476-.769.109-.879.109-1.795a13.394 13.394 0 0 0-.366-3.113 10.185 10.185 0 0 0-.186-.68 8.617 8.617 0 0 0-.949-2.066q-.769-1.209-1.923-1.941a4.532 4.532 0 0 0-1.323-.566 5.693 5.693 0 0 0-1.405-.166 4.426 4.426 0 0 0-1.739.347q-.824.348-1.465.989a4.371 4.371 0 0 0-.268.293 4.71 4.71 0 0 0-.739 1.245 4.757 4.757 0 0 0-.209.637 5.397 5.397 0 0 0-.158 1.323 4.518 4.518 0 0 0 .055.687 6.057 6.057 0 0 0 .165.741q.22.769.623 1.446a4.52 4.52 0 0 0 .163.256 3.822 3.822 0 0 0 .807.861 2.066 2.066 0 0 0 1.3.44 1.329 1.329 0 0 0 .505-.098 1.534 1.534 0 0 0 .429-.269 1.172 1.172 0 0 0 .357-.541 1.483 1.483 0 0 0 .064-.447q0-.769-.622-1.209-.312-.201-.522-.43a1.716 1.716 0 0 1-.321-.485 2.975 2.975 0 0 1-.063-.161 2.529 2.529 0 0 1-.156-.865.967.967 0 0 1 0-.034q.005-.121.036-.405.037-.33.22-.678.183-.348.549-.622.252-.189.642-.248a2.569 2.569 0 0 1 .384-.027 2.876 2.876 0 0 1 .189.006 2.242 2.242 0 0 1 1.312.507q.623.513 1.044 1.336a6.226 6.226 0 0 1 .316.735 7.66 7.66 0 0 1 .306 1.133 10.899 10.899 0 0 1 .202 2.069 10.01 10.01 0 0 1-.458 3.003 10.711 10.711 0 0 1-.184.539 9.234 9.234 0 0 1-1.079 2.08 7.889 7.889 0 0 1-.167.229 6.834 6.834 0 0 1-1.738 1.638 5.098 5.098 0 0 1-.017.011 4.221 4.221 0 0 1-2.326.703 3.449 3.449 0 0 1-2.198-.75 5.752 5.752 0 0 1-.894-.887 7.511 7.511 0 0 1-.754-1.128 11.404 11.404 0 0 1-.564-1.186 14.445 14.445 0 0 1-.571-1.707 22.604 22.604 0 0 1-.11-.422 24.972 24.972 0 0 1-.549-3.002 239.907 239.907 0 0 0 1.62-3.694 277.532 277.532 0 0 0 1.639-3.905 110.359 110.359 0 0 0 2.985-8.166 76.837 76.837 0 0 0 2.179-8.331 45.555 45.555 0 0 0 .286-1.557 39.929 39.929 0 0 0 .556-6.537 29.512 29.512 0 0 0-.07-2.069 23.065 23.065 0 0 0-.296-2.435q-.366-2.051-1.08-3.497a7.595 7.595 0 0 0-.688-1.143 5.525 5.525 0 0 0-1.07-1.11 3.818 3.818 0 0 0-2.399-.805 4.039 4.039 0 0 0-.717.065 4.842 4.842 0 0 0-1.004.301q-.556.232-1.098.72a6.448 6.448 0 0 0-.623.653 7.077 7.077 0 0 0-.485.658q-.577.879-1.108 2.162-.751 1.813-1.319 4.724a42.736 42.736 0 0 0-.253 1.433q-.2 1.252-.363 2.693a87.379 87.379 0 0 0-.281 2.942 87.621 87.621 0 0 0-.136 2.032q-.194 3.455-.194 7.801 0 2.966.074 6.262a88.149 88.149 0 0 0 .384 6.519 67.941 67.941 0 0 0 .127 1.198 60.178 60.178 0 0 0 .77 4.954 26.259 26.259 0 0 0 .65 2.59 19.44 19.44 0 0 0 .98 2.555 12.091 12.091 0 0 0 .936 1.652 9.134 9.134 0 0 0 1.682 1.882 5.485 5.485 0 0 0 1.755.994 6.293 6.293 0 0 0 2.054.325 6.584 6.584 0 0 0 2.362-.44q1.154-.439 2.179-1.227 1.025-.787 1.868-1.849a11.343 11.343 0 0 0 1.428-2.344 6.319 6.319 0 0 0 .057.056q.43.42.981.799a10.255 10.255 0 0 0 1.123.665 5.179 5.179 0 0 0 .3.142q.668.291 1.472.424a8.906 8.906 0 0 0 1.45.111 5.019 5.019 0 0 0 2.271-.549q1.098-.549 2.051-1.391a14.842 14.842 0 0 0 1.757-1.85 28.309 28.309 0 0 0 .751-.979 21.443 21.443 0 0 0 .641-.925 32.504 32.504 0 0 0 .263-.409q.208-.33.384-.627a16.47 16.47 0 0 0 .305-.539Zm-49.504-4.618a19.627 19.627 0 0 0 .212-1.186 27.6 27.6 0 0 1 .673-.028 22.294 22.294 0 0 1 .627-.009h1.117a4.573 4.573 0 0 1 .004 0q.744.001 1.118.172a.75.75 0 0 1 .251.176q.219.245.284.661a2.487 2.487 0 0 1 .028.383 15.646 15.646 0 0 1-.044 1.152 18.569 18.569 0 0 1-.322 2.308 18.357 18.357 0 0 0-.367 3.644 10.327 10.327 0 0 0 .075 1.267 8.022 8.022 0 0 0 .438 1.828 8.123 8.123 0 0 0 .394.892 6.439 6.439 0 0 0 .979 1.415 5.797 5.797 0 0 0 2.033 1.428 6.341 6.341 0 0 0 2.49.494 7.097 7.097 0 0 0 3.9-1.135q1.776-1.135 3.204-2.783a24.259 24.259 0 0 0 2.546-3.534 232.842 232.842 0 0 0 .147-.249q1.026-1.737 1.812-3.138a1.338 1.338 0 0 0 .1-.271 1.577 1.577 0 0 0 .046-.389 1.329 1.329 0 0 0-.097-.504 1.534 1.534 0 0 0-.269-.429 1.173 1.173 0 0 0-.591-.368 1.652 1.652 0 0 0-.434-.054 1.412 1.412 0 0 0-.696.184q-.33.183-.513.512-.622 1.209-1.556 2.82a23.843 23.843 0 0 1-2.106 3.058 15.591 15.591 0 0 1-.315.377 13.753 13.753 0 0 1-2.248 2.095 6.06 6.06 0 0 1-.395.268 4.793 4.793 0 0 1-2.572.757 2.686 2.686 0 0 1-.091-.001q-.248-.009-.52-.063a4.591 4.591 0 0 1-.524-.137 2.824 2.824 0 0 1-.567-.257 3.485 3.485 0 0 1-.605-.457q-.309-.289-.56-.687a4.843 4.843 0 0 1-.355-.687 3.785 3.785 0 0 1-.153-.434q-.213-.739-.213-1.745 0-.915.109-1.867a55.524 55.524 0 0 1 .257-1.923 68.025 68.025 0 0 0 .036-.242 61.961 61.961 0 0 0 .22-1.644 16.366 16.366 0 0 0 .048-.453 14.271 14.271 0 0 0 .062-1.305 6.771 6.771 0 0 0-.039-.742q-.167-1.517-1.06-2.261a3.381 3.381 0 0 0-.841-.508q-.952-.407-2.345-.407a35.492 35.492 0 0 0-.563.004 40.973 40.973 0 0 0-.59.014q-.605.019-1.227.019 0-.458-.05-1.016a18.051 18.051 0 0 0-.078-.706 11.39 11.39 0 0 0-.004-.031 10.335 10.335 0 0 0-.417-1.855 5.184 5.184 0 0 0-.23-.584 4.112 4.112 0 0 0-.594-.935 1.732 1.732 0 0 0-.655-.487 1.849 1.849 0 0 0-.719-.136 1.51 1.51 0 0 0-.515.093q-.257.093-.515.278a3.344 3.344 0 0 0-.435.38 7.834 7.834 0 0 0-.528.601 9.338 9.338 0 0 0-.79 1.175 12.372 12.372 0 0 0-.036.064 11.254 11.254 0 0 0-.898 2.023 12.027 12.027 0 0 0-.064.202q-.284.92-.284 1.483 0 .447.104.791a1.618 1.618 0 0 0 .263.527 2.121 2.121 0 0 0 .933.696 3.691 3.691 0 0 0 .292.099 4.115 4.115 0 0 0 .935.157 25.153 25.153 0 0 0 .082.005 22.991 22.991 0 0 0 1.2.032 88.362 88.362 0 0 1-.006.029q-.243 1.188-.427 1.914a14.687 14.687 0 0 1-.116.437q-.165.577-.289.907a3.534 3.534 0 0 1-.078.192 10.872 10.872 0 0 1-.021.048q-.097.216-.16.328a.981.981 0 0 1-.038.063q-.074.11-.074.33a1.305 1.305 0 0 0 .085.474 1.259 1.259 0 0 0 .355.496 1.817 1.817 0 0 0 .196.15 1.35 1.35 0 0 0 .756.235q.916 0 1.282-.842a.123.123 0 0 0 .017-.026q.039-.072.131-.319a14.125 14.125 0 0 0 .035-.095 13.51 13.51 0 0 0 .031-.087q.099-.276.22-.651a41.383 41.383 0 0 0 .097-.305q.201-.641.421-1.502a16.433 16.433 0 0 0 .154-.663Zm-18.391 9.837q.769 1.062 1.977 1.703 1.117.592 2.704.637a9.308 9.308 0 0 0 .262.003 6.444 6.444 0 0 0 2.507-.484 6.19 6.19 0 0 0 .753-.376q1.465-.861 2.673-2.252a17.888 17.888 0 0 0 1.98-2.793 19.926 19.926 0 0 0 .181-.32q.952-1.721 1.721-3.443.183-.402.513-.604.329-.201.732-.201a1.43 1.43 0 0 1 .491.081 1.241 1.241 0 0 1 .516.358 1.66 1.66 0 0 1 .26.391 1.314 1.314 0 0 1 .125.561q0 .144-.023.254a.784.784 0 0 1-.014.058 1.376 1.376 0 0 1-.046.132 1.875 1.875 0 0 1-.064.142 39.469 39.469 0 0 1-1.791 3.503q-.977 1.682-2.015 3.001a17.313 17.313 0 0 1-1.705 1.883 10.974 10.974 0 0 1-2.971 2.04 9.452 9.452 0 0 1-3.786.853 10.545 10.545 0 0 1-1.989-.179 7.739 7.739 0 0 1-2.186-.755 8.938 8.938 0 0 1-2.366-1.795 8.373 8.373 0 0 1-.527-.622 10.187 10.187 0 0 1-1.684-3.351 13.181 13.181 0 0 1-.55-3.735 13.339 13.339 0 0 1 .162-2.115 10.991 10.991 0 0 1 .296-1.328 9.39 9.39 0 0 1 .686-1.728 7.864 7.864 0 0 1 .632-1.018 6.512 6.512 0 0 1 1.477-1.47 6.054 6.054 0 0 1 .574-.361 5.314 5.314 0 0 1 2.619-.66 4.228 4.228 0 0 1 1.589.316 4.838 4.838 0 0 1 .077.032 4.782 4.782 0 0 1 1.483.989 4.782 4.782 0 0 1 .93 1.276 5.603 5.603 0 0 1 .132.28 4.696 4.696 0 0 1 .346 1.245 6.059 6.059 0 0 1 .057.843 7.796 7.796 0 0 1-.386 2.466 7.347 7.347 0 0 1-.127.354q-.512 1.318-1.41 2.453a11.73 11.73 0 0 1-1.687 1.724 13.379 13.379 0 0 1-.455.364q-1.245.952-2.673 1.648Zm40.063-10.84a294.024 294.024 0 0 0 1.888-4.79 334.849 334.849 0 0 0 .639-1.674q1.282-3.387 2.307-6.903a71.466 71.466 0 0 0 1.685-7.104 39.068 39.068 0 0 0 .659-7.068 30.234 30.234 0 0 0-.071-2.039 34.947 34.947 0 0 0-.057-.726q-.128-1.447-.458-2.655a7.89 7.89 0 0 0-.334-.98q-.213-.506-.482-.915a4.653 4.653 0 0 0-.081-.119 2.148 2.148 0 0 0-.427-.459 1.607 1.607 0 0 0-1.02-.347.608.608 0 0 0-.199.038q-.237.082-.552.347-.457.384-.97 1.355a9.022 9.022 0 0 0-.32.679q-.33.774-.659 1.857a29.28 29.28 0 0 0-.046.155 23.504 23.504 0 0 0-.365 1.39q-.151.653-.294 1.4a51.761 51.761 0 0 0-.275 1.586 56.823 56.823 0 0 0-.296 2.144q-.228 1.912-.4 4.247-.275 3.735-.275 8.789a162.707 162.707 0 0 0 .037 3.424 258.773 258.773 0 0 0 .041 1.698 223.03 223.03 0 0 0 .05 1.616 160.955 160.955 0 0 0 .06 1.511 123.522 123.522 0 0 0 .069 1.382 114.941 114.941 0 0 0 .036.63q.047.773.095 1.348a37.822 37.822 0 0 0 .015.183Zm-41.162 8.459q1.135-.476 2.069-1.208a8.86 8.86 0 0 0 1.292-1.234 7.972 7.972 0 0 0 .301-.378 7.513 7.513 0 0 0 .976-1.72 7.035 7.035 0 0 0 .05-.129 5.511 5.511 0 0 0 .366-1.959q0-1.099-.55-1.666-.549-.568-1.281-.568-.989 0-1.685.549a4.003 4.003 0 0 0-.931 1.06 4.84 4.84 0 0 0-.204.369 7.041 7.041 0 0 0-.509 1.367 8.415 8.415 0 0 0-.132.592q-.201 1.08-.201 2.142a7.617 7.617 0 0 0 .057.919 9.146 9.146 0 0 0 .071.473 15.076 15.076 0 0 0 .223 1.057 13.309 13.309 0 0 0 .088.334Zm15.637-11.352h1.612a9.04 9.04 0 0 0-.002-.139q-.003-.191-.013-.452a29.992 29.992 0 0 0-.004-.087q-.018-.421-.073-.824a5.462 5.462 0 0 0-.054-.326q-.04-.202-.092-.369-.076-.241-.163-.284a.087.087 0 0 0-.039-.009q-.097 0-.238.216a1.891 1.891 0 0 0-.037.058 5.998 5.998 0 0 0-.126.222q-.107.197-.221.437-.184.385-.33.824a16.195 16.195 0 0 0-.069.211q-.089.282-.143.492a5.348 5.348 0 0 0-.008.03Z" font-size="12" vector-effect="non-scaling-stroke"/></svg>